<svg width="100" height="60" viewBox="0 0 100 60" fill="none" xmlns="http://www.w3.org/2000/svg">
<path d="M18.4416 19.3513L8.52488 9.45966C3.06894 14.9195 0.00415039 22.3223 0.00415039 30.0409C0.00415039 37.7595 3.06894 45.1623 8.52488 50.6222L18.4416 40.7013C15.6256 37.8629 14.0455 34.0267 14.0455 30.0284C14.0455 26.0301 15.6256 22.1897 18.4416 19.3513Z" fill="#E8710A"/>
<path d="M49.7791 9.45605C44.3232 14.9159 41.2584 22.3187 41.2584 30.0373C41.2584 37.7559 44.3232 45.1587 49.7791 50.6185L59.8833 40.6977C57.5687 37.789 56.4035 34.1313 56.6094 30.4197C56.8152 26.7082 58.3776 23.2017 60.9997 20.5668C63.6217 17.9319 67.1206 16.3523 70.8311 16.1283C74.5415 15.9043 78.205 17.0515 81.1249 19.3519L91.0458 9.43105C88.3511 6.71775 85.1482 4.56194 81.6201 3.08675C78.092 1.61156 74.3079 0.845908 70.4838 0.833527C66.6598 0.821145 62.8707 1.56228 59.3332 3.01459C55.7956 4.46689 52.5789 6.60193 49.8666 9.29772L49.7833 9.38105V9.45605H49.7791ZM47.0291 53.0019L39.6749 40.6935C36.8367 43.5082 33.0014 45.0875 29.0041 45.0875C25.0069 45.0875 21.1715 43.5082 18.3333 40.6935L8.51245 50.6269C13.4646 55.5773 20.0348 58.5777 27.0191 59.0781C34.0034 59.5786 40.9342 57.5457 46.5416 53.3519L47.0208 53.0019M8.51245 9.45188L18.4333 19.3519C21.2672 16.5675 25.0812 15.0073 29.0541 15.0073C33.027 15.0073 36.841 16.5675 39.6749 19.3519L46.8708 7.02272L46.4416 6.69355C40.8386 2.53047 33.9265 0.518825 26.9645 1.02512C20.0026 1.53142 13.4542 4.52195 8.51245 9.45188Z" fill="#F9AB00"/>
<path d="M91.0416 9.45557L81.1166 19.3514C83.4312 22.2601 84.5963 25.9179 84.3905 29.6294C84.1847 33.3409 82.6222 36.8475 80.0002 39.4824C77.3781 42.1173 73.8793 43.6969 70.1688 43.9208C66.4583 44.1448 62.7949 42.9976 59.8749 40.6972L49.7708 50.6264C55.2672 55.9042 62.6137 58.817 70.2335 58.7395C77.8533 58.662 85.139 55.6004 90.527 50.2118C95.915 44.8233 98.9758 37.5373 99.0526 29.9175C99.1293 22.2977 96.2158 14.9515 90.9374 9.45557H91.0416Z" fill="#E8710A"/>
</svg>
