<svg version="1.1" id="Layer_1" xmlns="http://www.w3.org/2000/svg" xmlns:xlink="http://www.w3.org/1999/xlink" x="0px" y="0px"
	 width="100%" viewBox="0 0 500 500" enable-background="new 0 0 500 500" xml:space="preserve">
<path fill="#000000" opacity="1.000000" stroke="none" 
	d="
M501.000000,139.000000 
	C501.000000,259.999969 501.000000,380.499939 501.000000,500.999939 
	C334.333405,500.999939 167.666809,500.999939 1.000154,500.999969 
	C1.000103,334.333435 1.000103,167.666885 1.000051,1.000244 
	C167.666519,1.000162 334.333038,1.000162 500.999756,1.000081 
	C501.000000,46.833332 501.000000,92.666664 501.000000,139.000000 
M367.086426,100.077103 
	C367.086426,100.077103 367.109894,100.031998 367.587494,99.966446 
	C367.900238,99.794540 368.055725,99.530197 368.611603,98.889282 
	C369.404755,97.955460 370.197937,97.021637 371.122162,96.077385 
	C371.122162,96.077385 371.116638,95.946007 371.552765,95.848465 
	C371.829498,95.673286 371.971802,95.421921 372.079407,95.099556 
	C372.079407,95.099556 372.088959,95.000114 372.564423,94.919014 
	C372.883179,94.739189 373.020844,94.467606 373.118347,94.086922 
	C373.118347,94.086922 373.105927,93.945496 373.777344,93.905075 
	C374.510223,92.970467 375.243134,92.035851 376.073608,91.109169 
	C376.073608,91.109169 376.085999,91.012062 376.519745,90.991180 
	C376.823517,90.866104 376.966797,90.639748 377.479858,89.941132 
	C377.749207,89.607124 378.018585,89.273117 378.702881,88.851601 
	C378.961853,88.660248 379.062347,88.405899 379.104706,88.075264 
	C379.104706,88.075264 379.095795,87.974388 379.519440,87.871681 
	C379.804443,87.713737 379.934753,87.472382 380.119812,87.143486 
	C380.119812,87.143486 380.124756,86.934105 380.558502,86.860199 
	C380.842377,86.692062 380.971100,86.443489 381.108673,86.114937 
	C381.108673,86.114937 381.114502,85.951065 381.567139,85.873222 
	C381.859344,85.695389 381.997650,85.435547 382.090576,85.089577 
	C382.090576,85.089577 382.090790,84.980988 382.721222,84.737312 
	C386.818970,80.655365 390.684113,76.301353 395.067383,72.553345 
	C402.169128,66.480827 400.994446,57.009544 395.216125,52.948177 
	C386.102234,46.542370 376.783081,40.240021 366.895508,35.172417 
	C355.106476,29.130247 342.712097,24.223618 330.402832,19.264753 
	C325.530518,17.301928 320.181732,16.521925 314.240295,15.046492 
	C310.828705,14.036650 307.462738,12.813521 303.993896,12.071335 
	C299.726440,11.158284 295.373138,10.646357 290.622528,9.271533 
	C285.727692,8.590635 280.832886,7.909738 275.324463,7.072307 
	C274.908508,7.122114 274.492584,7.171921 273.294250,7.061924 
	C270.848236,7.106668 268.402191,7.151411 265.103302,7.045811 
	C263.080658,7.091799 261.058014,7.137788 258.557556,7.030617 
	C258.392273,7.005076 258.226990,6.979536 257.597504,6.229713 
	C248.443298,6.486874 239.286499,6.678981 230.136673,7.045375 
	C227.747574,7.141043 225.380219,7.779167 222.107620,8.024208 
	C214.728973,9.329256 207.350311,10.634304 199.125061,12.013381 
	C196.041763,12.654817 192.958450,13.296251 189.210999,14.001348 
	C188.462692,14.307698 187.714371,14.614048 186.224609,15.017115 
	C185.133209,15.306113 184.041809,15.595111 182.150131,16.023800 
	C174.753494,18.660479 167.356857,21.297155 159.219894,24.039566 
	C156.117523,25.442463 153.015137,26.845360 149.341309,28.103323 
	C148.903580,28.386604 148.465851,28.669886 147.945572,28.949106 
	C147.945572,28.949106 147.938965,29.031492 147.184708,29.033457 
	C137.089813,34.663689 126.994934,40.293922 116.202354,46.031742 
	C110.452820,50.338634 104.703278,54.645523 98.320969,59.253357 
	C93.532845,63.237370 88.744728,67.221382 83.306862,71.349846 
	C78.883568,76.227814 74.460274,81.105789 69.414429,86.191376 
	C68.229675,87.467606 67.044930,88.743828 65.334412,90.195145 
	C65.240326,90.718666 65.146240,91.242188 64.450172,92.103828 
	C62.968452,94.055016 61.486732,96.006210 59.376076,98.236122 
	C55.917484,103.113342 52.458893,107.990562 48.915962,112.891441 
	C48.915962,112.891441 48.913727,112.979004 48.279842,113.173607 
	C47.517136,114.419884 46.754429,115.666161 45.912338,116.917557 
	C45.912338,116.917557 45.913342,116.997093 45.268093,117.218033 
	C44.542397,118.794243 43.816696,120.370453 42.962875,121.946167 
	C42.962875,121.946167 42.960175,122.074257 42.357025,122.262169 
	C41.906288,123.147888 41.455547,124.033600 40.914230,124.929016 
	C40.914230,124.929016 40.920132,125.019913 40.314999,125.227943 
	C39.960934,126.156586 39.606869,127.085228 39.064663,128.520157 
	C39.014606,128.693115 38.964550,128.866058 38.474285,129.134521 
	C38.179539,129.304352 38.049515,129.558533 37.925549,129.906509 
	C37.925549,129.906509 37.930988,130.065369 37.392548,130.228592 
	C37.296185,130.758865 37.199821,131.289154 36.467720,132.177155 
	C34.324989,136.789200 32.182262,141.401245 29.994652,145.997147 
	C29.994652,145.997147 30.010275,146.042206 29.537895,146.138474 
	C29.178171,146.323395 29.087648,146.597290 29.082132,147.697327 
	C28.050774,150.152023 27.019415,152.606705 25.425156,155.238205 
	C25.308508,155.799545 25.191860,156.360870 24.926580,156.945007 
	C24.926580,156.945007 24.946280,157.094086 24.534775,157.190628 
	C24.214977,157.364655 24.152929,157.605286 24.137369,158.492111 
	C24.070602,158.686615 24.003834,158.881104 23.315840,159.307404 
	C23.218382,160.179184 23.120924,161.050964 22.930342,161.940735 
	C22.930342,161.940735 22.945282,162.034393 22.317377,162.378479 
	C19.953373,169.595398 17.589367,176.812317 15.088178,184.490112 
	C15.088178,184.490112 15.206740,184.956131 15.023940,185.519348 
	C14.969222,185.708984 14.914504,185.898621 14.256822,186.436829 
	C14.173410,187.608521 14.089998,188.780228 13.955310,189.955551 
	C13.955310,189.955551 13.962461,190.006454 13.297235,190.370071 
	C12.181758,196.898270 11.066281,203.426468 9.288726,210.389297 
	C8.262807,218.547760 7.236887,226.706238 6.031694,235.815948 
	C6.091354,246.237228 6.151013,256.658508 6.069103,267.940155 
	C8.339413,281.303955 10.609722,294.667755 13.045960,308.504242 
	C13.099796,308.662292 13.153631,308.820374 13.039254,309.719452 
	C13.684772,311.476532 14.330292,313.233612 15.060349,315.514984 
	C15.115674,315.683105 15.171000,315.851257 15.071094,316.808380 
	C15.932456,320.249054 16.440166,323.827789 17.719368,327.105377 
	C22.121668,338.385132 26.146126,349.883179 31.542599,360.684479 
	C37.087177,371.782257 43.662392,382.433258 50.547672,392.772919 
	C56.780968,402.133484 65.509766,401.836395 71.891243,395.829865 
	C75.295708,392.625458 78.521637,389.231384 81.956924,385.484589 
	C81.956924,385.484589 82.027100,385.033081 82.537231,384.886230 
	C82.718788,384.592865 82.900352,384.299500 83.700363,383.779572 
	C91.486954,375.867432 99.273552,367.955292 107.546959,359.841736 
	C107.759430,359.565063 107.971901,359.288361 108.625259,358.942993 
	C108.917923,358.775116 109.045036,358.523468 109.494537,357.892975 
	C109.720306,357.591400 109.946075,357.289825 110.647118,356.893188 
	C110.945160,356.688141 111.078644,356.405243 110.999695,356.000000 
	C110.999695,356.000000 111.045509,356.047455 111.576569,355.958313 
	C111.732811,355.654297 111.889053,355.350281 112.000000,355.000000 
	C112.000000,355.000000 112.045769,355.044434 112.542694,354.956451 
	C112.697731,354.679230 112.852760,354.402008 113.499077,353.938782 
	C113.661766,353.874023 113.824455,353.809265 114.563248,353.784851 
	C114.964844,353.183868 115.366447,352.582855 116.085632,351.372284 
	C119.411079,347.909912 122.736526,344.447540 126.596207,340.801056 
	C127.224899,340.104370 127.853592,339.407684 128.686508,338.688812 
	C128.686508,338.688812 128.711670,338.484955 129.124908,338.187805 
	C129.436462,337.803833 129.748001,337.419861 130.682968,336.836487 
	C131.371552,335.550293 132.060150,334.264069 132.923950,332.124359 
	C133.876984,327.200531 131.109711,323.626373 129.008255,319.527740 
	C124.781944,311.284882 121.451363,302.582733 117.894432,293.449341 
	C117.600883,292.955536 117.307335,292.461700 116.949608,291.324677 
	C116.903206,290.897186 116.856804,290.469666 116.978737,289.401367 
	C116.659950,288.907593 116.341156,288.413818 115.916153,287.492950 
	C115.916153,287.492950 115.778748,287.074860 115.955193,286.244598 
	C114.579361,279.497986 113.203537,272.751343 111.992172,265.076752 
	C111.993355,255.409973 111.994537,245.743179 112.690918,235.621445 
	C113.138733,232.229034 113.541443,228.829880 114.046829,225.446060 
	C114.570053,221.942856 115.192879,218.454498 115.891312,214.511200 
	C115.891312,214.511200 115.981827,214.056107 116.678291,213.715469 
	C117.805176,209.827438 118.932053,205.939392 120.006111,201.999390 
	C120.006111,201.999390 120.053146,202.052216 120.709023,201.762589 
	C121.153641,200.189209 121.598251,198.615845 122.011597,197.001205 
	C122.011597,197.001205 122.054344,197.033249 122.723602,196.776001 
	C123.840858,193.870712 124.958115,190.965424 126.031586,187.998642 
	C126.031586,187.998642 126.045425,188.072693 126.632423,187.956467 
	C126.705597,187.606415 126.778778,187.256348 126.880852,186.450348 
	C126.880852,186.450348 126.753899,186.011490 127.011391,185.477493 
	C127.354965,185.007446 127.698540,184.537384 128.616516,183.810104 
	C128.671860,183.209518 128.727203,182.608917 129.139664,181.366791 
	C131.415802,178.259705 133.691940,175.152634 136.609940,171.763992 
	C138.775070,168.477524 140.940201,165.191055 143.528809,161.827454 
	C143.797836,161.664734 143.937607,161.426208 144.465530,160.945572 
	C144.658325,160.652878 144.851135,160.360184 145.666519,159.798294 
	C148.789764,156.213028 151.912994,152.627777 155.738693,148.987442 
	C162.163681,143.991806 168.588669,138.996185 175.677490,133.775223 
	C183.806625,129.571228 191.935760,125.367241 200.807404,121.008652 
	C210.570419,115.899895 221.537399,115.360291 232.693115,112.949684 
	C233.781525,112.651863 234.869919,112.354042 236.902405,111.996353 
	C246.616562,112.032455 256.330719,112.068558 266.481598,112.791443 
	C276.317902,114.806549 286.154175,116.821648 296.671112,119.164398 
	C301.433594,121.133598 306.196045,123.102806 311.306244,125.723831 
	C314.720337,127.503326 318.259308,129.082031 321.519379,131.109253 
	C326.437805,134.167694 333.628143,133.694916 337.830017,129.614395 
	C341.810638,125.748749 345.733063,121.822479 349.640503,117.882637 
	C351.168060,116.342415 352.584930,114.692451 354.083069,113.079468 
	C354.083069,113.079468 354.096283,113.048721 354.684021,112.872025 
	C355.462097,111.946114 356.240173,111.020210 357.075867,110.083405 
	C357.075867,110.083405 357.066040,110.025589 357.539276,109.919762 
	C357.850677,109.744026 358.003754,109.477478 358.517334,108.914047 
	C358.717010,108.609306 358.916687,108.304558 359.564575,107.892258 
	C359.855072,107.716339 359.998291,107.458519 360.498871,106.932404 
	C360.686859,106.639008 360.874847,106.345619 361.615570,105.865974 
	C362.086975,105.267456 362.558380,104.668930 363.061066,104.060783 
	C363.061066,104.060783 363.071777,104.029869 363.756592,103.975304 
	C364.507507,103.007431 365.258392,102.039566 366.068573,101.070045 
	C366.068573,101.070045 366.066650,101.010788 366.560822,100.906387 
	C366.720459,100.623199 366.880096,100.340019 367.086426,100.077103 
M237.209061,390.083374 
	C231.529526,389.081604 225.851654,388.070282 220.170135,387.079895 
	C205.992416,384.608612 193.045227,378.921173 180.671371,371.817230 
	C173.309052,367.590454 168.507477,368.042786 162.523468,373.954926 
	C159.810760,376.635040 157.138153,379.355743 154.443039,382.053680 
	C138.472305,398.041229 122.461128,413.988647 106.547333,430.032654 
	C99.878273,436.756287 100.282402,445.251099 108.038040,450.409332 
	C117.951721,457.002838 127.874359,463.878754 138.614899,468.861755 
	C153.562973,475.796753 168.948685,482.215790 184.749115,486.764282 
	C200.123642,491.190216 216.155502,494.416351 232.084351,495.541626 
	C249.537186,496.774536 267.331757,497.546539 284.730530,493.630676 
	C301.036469,489.960724 317.601471,487.026276 333.478424,481.966827 
	C355.042847,475.094940 374.642883,463.812744 393.290344,450.966797 
	C401.225067,445.500671 402.077850,436.519501 395.238037,429.757202 
	C376.231323,410.965759 357.260468,392.138031 338.306305,373.293549 
	C333.723419,368.737213 327.663330,367.663330 322.097168,370.586823 
	C316.392212,373.583191 310.797516,376.826263 304.934021,379.472687 
	C299.972870,381.711823 294.807465,383.703888 289.534454,384.999512 
	C281.082001,387.076416 272.465820,388.487213 262.994843,390.048798 
	C254.689987,390.075684 246.385147,390.102570 237.209061,390.083374 
M182.124146,265.039276 
	C185.910065,282.618561 194.769302,296.999420 209.310532,307.686523 
	C233.437134,325.418457 266.808289,326.168182 290.933472,308.885010 
	C310.857574,294.611420 321.423309,275.063629 321.045532,249.968613 
	C320.684784,226.004959 309.679047,207.744919 291.229462,193.708862 
	C277.247742,183.071884 260.725067,179.799072 243.529526,181.200531 
	C230.485870,182.263611 218.356949,186.761093 208.238693,195.424896 
	C203.861603,199.172821 199.670471,203.254349 195.997192,207.683853 
	C188.036438,217.283539 183.022324,228.373184 182.132935,240.887451 
	C181.584381,248.606018 182.064346,256.397705 182.124146,265.039276 
z"/>
<path fill="#1F0256" opacity="1.000000" stroke="none" 
	d="
M263.918854,390.179504 
	C272.465820,388.487213 281.082001,387.076416 289.534454,384.999512 
	C294.807465,383.703888 299.972870,381.711823 304.934021,379.472687 
	C310.797516,376.826263 316.392212,373.583191 322.097168,370.586823 
	C327.663330,367.663330 333.723419,368.737213 338.306305,373.293549 
	C357.260468,392.138031 376.231323,410.965759 395.238037,429.757202 
	C402.077850,436.519501 401.225067,445.500671 393.290344,450.966797 
	C374.642883,463.812744 355.042847,475.094940 333.478424,481.966827 
	C317.601471,487.026276 301.036469,489.960724 284.730530,493.630676 
	C267.331757,497.546539 249.537186,496.774536 232.084351,495.541626 
	C216.155502,494.416351 200.123642,491.190216 184.749115,486.764282 
	C168.948685,482.215790 153.562973,475.796753 138.614899,468.861755 
	C127.874359,463.878754 117.951721,457.002838 108.038040,450.409332 
	C100.282402,445.251099 99.878273,436.756287 106.547333,430.032654 
	C122.461128,413.988647 138.472305,398.041229 154.443039,382.053680 
	C157.138153,379.355743 159.810760,376.635040 162.523468,373.954926 
	C168.507477,368.042786 173.309052,367.590454 180.671371,371.817230 
	C193.045227,378.921173 205.992416,384.608612 220.170135,387.079895 
	C225.851654,388.070282 231.529526,389.081604 237.957626,390.375031 
	C247.110413,390.504303 255.514633,390.341919 263.918854,390.179504 
z"/>
<path fill="#1F0355" opacity="1.000000" stroke="none" 
	d="
M182.103348,264.597900 
	C182.064346,256.397705 181.584381,248.606018 182.132935,240.887451 
	C183.022324,228.373184 188.036438,217.283539 195.997192,207.683853 
	C199.670471,203.254349 203.861603,199.172821 208.238693,195.424896 
	C218.356949,186.761093 230.485870,182.263611 243.529526,181.200531 
	C260.725067,179.799072 277.247742,183.071884 291.229462,193.708862 
	C309.679047,207.744919 320.684784,226.004959 321.045532,249.968613 
	C321.423309,275.063629 310.857574,294.611420 290.933472,308.885010 
	C266.808289,326.168182 233.437134,325.418457 209.310532,307.686523 
	C194.769302,296.999420 185.910065,282.618561 182.103348,264.597900 
z"/>
<path fill="#7839FE" opacity="1.000000" stroke="none" 
	d="
M6.210968,234.864700 
	C7.236887,226.706238 8.262807,218.547760 9.989875,210.209595 
	C14.454216,214.050156 18.199488,218.087387 21.984579,222.086929 
	C28.441755,228.909897 34.841049,235.790421 41.416027,242.498413 
	C50.131763,251.390518 60.361938,258.818359 67.339127,269.390198 
	C67.608887,269.798950 67.990150,270.143250 68.355476,270.478333 
	C74.799065,276.387970 81.328438,282.206909 87.673042,288.220825 
	C93.645790,293.882263 99.517921,299.657532 105.253838,305.558167 
	C108.577248,308.977020 111.494934,312.786774 114.691711,316.333618 
	C116.446861,318.281006 118.402267,320.047852 120.267380,321.896118 
	C124.459267,325.339935 128.103134,329.232544 131.784271,333.089539 
	C131.918945,333.230621 132.418991,333.023010 132.748749,332.977875 
	C132.060150,334.264069 131.371552,335.550293 130.276672,336.708557 
	C129.484146,337.215424 129.097916,337.850189 128.711670,338.484955 
	C128.711670,338.484955 128.686508,338.688812 128.273895,338.600037 
	C127.261528,339.335907 126.661751,340.160553 126.061981,340.985168 
	C122.736526,344.447540 119.411079,347.909912 115.636993,351.683563 
	C114.802933,351.997101 114.417503,351.999359 114.090485,351.642090 
	C114.148895,348.521240 114.148895,345.759979 114.148895,344.348419 
	C111.007721,342.229950 108.796753,341.163025 107.126953,339.539490 
	C99.816490,332.431488 92.662827,325.162201 85.452286,317.951447 
	C77.215744,309.714600 68.888702,301.565399 60.785389,293.199493 
	C57.345417,289.648071 54.576653,285.447754 51.146725,281.885162 
	C44.778202,275.270325 38.171604,268.883453 31.619287,262.447296 
	C26.927401,257.838593 22.169525,253.296860 17.415106,248.752441 
	C17.077490,248.429733 16.532648,248.174088 16.072226,248.153458 
	C12.615173,247.998428 11.895544,245.437759 11.138547,242.790268 
	C10.824273,241.691116 10.168073,240.689728 9.667361,239.643890 
	C9.106086,239.729233 8.544810,239.814590 7.983535,239.899948 
	C7.983535,244.603363 7.983535,249.306778 7.789294,254.008850 
	C7.595053,254.007507 7.206151,254.005264 7.159577,253.537704 
	C6.812324,247.001663 6.511646,240.933182 6.210968,234.864700 
z"/>
<path fill="#5F32FE" opacity="1.000000" stroke="none" 
	d="
M25.988058,155.061401 
	C27.019415,152.606705 28.050774,150.152023 29.315113,147.189926 
	C29.726078,146.486359 29.880138,146.272919 30.010275,146.042206 
	C30.010275,146.042206 29.994652,145.997147 30.320435,145.908646 
	C33.418362,143.531387 35.511513,145.012726 37.532616,147.037231 
	C43.745758,153.260880 49.971180,159.472260 56.189960,165.690277 
	C68.164055,177.662888 80.105324,189.668549 92.122734,201.597504 
	C98.709793,208.136063 105.424484,214.546021 112.068565,221.467331 
	C111.367401,233.282501 110.679291,244.644302 109.666687,255.889832 
	C107.167030,253.623734 105.913155,249.899597 101.632454,251.308472 
	C101.381332,251.391113 100.630569,250.803467 100.551033,250.433441 
	C99.175934,244.035919 93.023178,241.881058 89.153488,237.746597 
	C81.868614,229.963257 74.195549,222.531143 66.477150,215.169754 
	C61.011723,209.957153 57.551735,202.762848 50.512608,199.101700 
	C49.859726,198.762115 49.587242,197.744415 49.054039,197.112564 
	C46.180668,193.707535 43.518642,190.078659 40.329212,186.997482 
	C36.421566,183.222458 32.117611,179.846832 27.879372,176.429520 
	C25.832457,174.779083 23.543993,173.428192 21.162346,171.803497 
	C21.653946,169.109909 22.299614,165.572159 22.945282,162.034393 
	C22.945282,162.034393 22.930342,161.940735 23.176825,161.697586 
	C23.594561,160.661499 23.765812,159.868546 23.937065,159.075607 
	C24.003834,158.881104 24.070602,158.686615 24.361525,158.080414 
	C24.730904,157.492874 24.851105,157.301331 24.946280,157.094086 
	C24.946280,157.094086 24.926580,156.945007 25.181046,156.741333 
	C25.619692,156.045578 25.803875,155.553482 25.988058,155.061401 
z"/>
<path fill="#2B9FFD" opacity="1.000000" stroke="none" 
	d="
M223.002869,8.168156 
	C225.380219,7.779167 227.747574,7.141043 230.136673,7.045375 
	C239.286499,6.678981 248.443298,6.486874 257.415894,6.606094 
	C254.919128,7.905552 252.604004,8.828629 250.288879,9.751703 
	C251.042130,11.148514 251.496353,12.870102 252.600037,13.886301 
	C257.552063,18.445786 262.779022,22.706739 267.729858,27.267466 
	C271.565643,30.800976 275.054382,34.709446 278.857544,38.280682 
	C281.745239,40.992287 284.921783,43.393776 287.896881,46.015957 
	C289.372131,47.316200 290.694580,48.791748 292.066498,50.206985 
	C295.848083,54.107899 299.585205,58.052742 303.413849,61.906723 
	C304.687378,63.188679 306.318573,64.121307 307.558990,65.429176 
	C315.861206,74.182922 324.050873,83.043900 332.396606,91.755562 
	C334.647949,94.105637 337.769623,95.715919 339.690704,98.268623 
	C343.556488,103.405464 347.596863,108.081749 354.012512,110.375092 
	C354.038391,111.521431 354.067352,112.285072 354.096283,113.048721 
	C354.096283,113.048721 354.083069,113.079468 353.716919,113.131950 
	C350.290222,115.384338 346.845581,117.209282 344.252502,119.865509 
	C339.480011,124.754250 338.544037,125.049309 333.565033,120.025383 
	C329.131561,115.551895 324.960754,110.817001 320.503235,106.368645 
	C312.298187,98.180428 303.894775,90.190636 295.710876,81.981682 
	C288.115295,74.362839 280.749939,66.514938 273.189331,58.860626 
	C264.238007,49.798325 255.618591,40.339161 246.038773,31.988764 
	C238.579666,25.486927 233.477905,15.564927 222.101501,13.548892 
	C224.692871,13.158265 227.284241,12.767639 229.521042,12.430460 
	C227.177399,10.897932 225.090134,9.533045 223.002869,8.168156 
z"/>
<path fill="#823BFE" opacity="1.000000" stroke="none" 
	d="
M7.983535,254.010193 
	C7.983535,249.306778 7.983535,244.603363 7.983535,239.899948 
	C8.544810,239.814590 9.106086,239.729233 9.667361,239.643890 
	C10.168073,240.689728 10.824273,241.691116 11.138547,242.790268 
	C11.895544,245.437759 12.615173,247.998428 16.072226,248.153458 
	C16.532648,248.174088 17.077490,248.429733 17.415106,248.752441 
	C22.169525,253.296860 26.927401,257.838593 31.619287,262.447296 
	C38.171604,268.883453 44.778202,275.270325 51.146725,281.885162 
	C54.576653,285.447754 57.345417,289.648071 60.785389,293.199493 
	C68.888702,301.565399 77.215744,309.714600 85.452286,317.951447 
	C92.662827,325.162201 99.816490,332.431488 107.126953,339.539490 
	C108.796753,341.163025 111.007721,342.229950 114.148895,344.348419 
	C114.148895,345.759979 114.148895,348.521240 114.077652,351.932373 
	C113.999985,352.969666 113.993561,353.357086 113.987144,353.744507 
	C113.824455,353.809265 113.661766,353.874023 113.062553,354.146973 
	C112.390892,354.549774 112.197472,354.779541 112.045769,355.044434 
	C112.045769,355.044434 112.000000,355.000000 111.826096,355.158386 
	C111.405151,355.523132 111.202927,355.766693 111.045509,356.047455 
	C111.045509,356.047455 110.999695,356.000000 110.843277,356.148132 
	C110.453293,356.480896 110.281616,356.711548 110.171844,356.988251 
	C109.946075,357.289825 109.720306,357.591400 109.072014,358.129852 
	C108.426392,358.532593 108.271347,358.747589 108.184364,359.011688 
	C107.971901,359.288361 107.759430,359.565063 107.025711,359.768494 
	C103.648178,356.712372 101.441406,356.954620 99.655708,360.972290 
	C93.314323,359.451050 98.937134,356.085571 97.850868,354.312073 
	C94.573006,353.006012 91.329948,351.626312 88.974808,349.334259 
	C77.416405,338.085449 66.093811,326.594299 54.688427,315.188263 
	C44.030533,304.529755 33.339680,293.903748 22.754162,283.173828 
	C21.275345,281.674835 20.431932,279.567383 19.072033,277.925812 
	C18.245987,276.928680 16.593555,275.368591 15.995891,275.629181 
	C11.619096,277.537415 11.984370,274.062561 10.984317,271.769104 
	C10.368462,270.356720 9.047267,269.251892 8.032979,267.543854 
	C8.009974,262.722565 7.996755,258.366364 7.983535,254.010193 
z"/>
<path fill="#3688FC" opacity="1.000000" stroke="none" 
	d="
M159.960220,23.933834 
	C167.356857,21.297155 174.753494,18.660479 182.863113,16.082359 
	C189.567490,21.869593 195.683136,27.475054 201.518478,33.358494 
	C208.629593,40.528229 215.353104,48.084873 222.521790,55.194355 
	C230.989227,63.591873 239.748428,71.695396 248.390549,79.916489 
	C253.541504,84.816498 258.676605,89.734039 263.885864,94.571533 
	C266.445953,96.948944 269.158447,99.162262 272.225281,101.816147 
	C269.858978,102.725014 268.332550,103.311295 265.626434,104.350685 
	C267.894989,105.058388 268.962524,105.312332 269.967377,105.720543 
	C272.429596,106.720810 274.931580,107.658379 277.291016,108.867966 
	C280.440399,110.482529 283.731384,111.999512 286.479584,114.168953 
	C289.384735,116.462296 294.513062,113.939697 295.990479,118.836754 
	C286.154175,116.821648 276.317902,114.806549 266.031006,112.194244 
	C264.720825,111.307838 263.861206,111.018623 262.627106,110.563881 
	C258.435608,110.264023 254.613068,110.211342 250.804474,109.952988 
	C249.388733,109.856956 247.009048,109.606422 246.766922,108.868912 
	C244.987793,103.449455 240.204712,103.406105 236.521927,101.968842 
	C235.769485,99.271477 234.875610,96.632835 233.141434,94.781212 
	C227.960648,89.249542 222.499634,83.975708 217.057724,78.694283 
	C208.787613,70.668083 200.449554,62.711761 192.118759,54.748371 
	C190.927170,53.609337 189.124878,52.844799 188.437057,51.485909 
	C183.888550,42.499638 175.158096,38.160751 167.785660,32.267170 
	C164.839417,29.911907 162.549118,26.736116 159.960220,23.933834 
z"/>
<path fill="#3A7EFD" opacity="1.000000" stroke="none" 
	d="
M159.590057,23.986700 
	C162.549118,26.736116 164.839417,29.911907 167.785660,32.267170 
	C175.158096,38.160751 183.888550,42.499638 188.437057,51.485909 
	C189.124878,52.844799 190.927170,53.609337 192.118759,54.748371 
	C200.449554,62.711761 208.787613,70.668083 217.057724,78.694283 
	C222.499634,83.975708 227.960648,89.249542 233.141434,94.781212 
	C234.875610,96.632835 235.769485,99.271477 236.521927,101.968842 
	C240.204712,103.406105 244.987793,103.449455 246.766922,108.868912 
	C247.009048,109.606422 249.388733,109.856956 250.804474,109.952988 
	C254.613068,110.211342 258.435608,110.264023 262.161194,110.626419 
	C257.257355,110.885094 252.439301,110.783600 247.634232,110.987785 
	C243.734177,111.153511 239.849701,111.686249 235.958328,112.056221 
	C234.869919,112.354042 233.781525,112.651863 232.189514,112.618317 
	C230.241196,112.195839 228.663757,111.679710 227.373322,112.082657 
	C219.039581,114.684959 213.350525,110.775490 208.289078,104.826294 
	C204.322495,100.163979 200.465378,95.350883 196.047394,91.142548 
	C187.526550,83.026115 178.210587,75.710876 170.021545,67.288284 
	C159.992737,56.973427 150.999542,45.633514 137.655472,37.423820 
	C139.768524,35.548836 141.465378,33.949299 143.265060,32.475300 
	C144.760239,31.250711 146.376404,30.173817 147.938965,29.031492 
	C147.938965,29.031492 147.945572,28.949106 148.242249,28.923746 
	C148.996872,28.681677 149.454819,28.464966 149.912766,28.248257 
	C153.015137,26.845360 156.117523,25.442463 159.590057,23.986700 
z"/>
<path fill="#28A8FC" opacity="1.000000" stroke="none" 
	d="
M354.015594,109.992401 
	C347.596863,108.081749 343.556488,103.405464 339.690704,98.268623 
	C337.769623,95.715919 334.647949,94.105637 332.396606,91.755562 
	C324.050873,83.043900 315.861206,74.182922 307.558990,65.429176 
	C306.318573,64.121307 304.687378,63.188679 303.413849,61.906723 
	C299.585205,58.052742 295.848083,54.107899 292.066498,50.206985 
	C290.694580,48.791748 289.372131,47.316200 287.896881,46.015957 
	C284.921783,43.393776 281.745239,40.992287 278.857544,38.280682 
	C275.054382,34.709446 271.565643,30.800976 267.729858,27.267466 
	C262.779022,22.706739 257.552063,18.445786 252.600037,13.886301 
	C251.496353,12.870102 251.042130,11.148514 250.288879,9.751703 
	C252.604004,8.828629 254.919128,7.905552 257.647980,6.968235 
	C258.226990,6.979536 258.392273,7.005076 259.111206,7.282846 
	C261.761993,7.422101 263.859070,7.309127 265.956177,7.196154 
	C268.402191,7.151411 270.848236,7.106668 273.851837,7.269388 
	C274.918976,7.394182 275.428497,7.311510 275.938049,7.228839 
	C280.832886,7.909738 285.727692,8.590635 290.389038,9.627648 
	C287.991364,10.015031 285.788147,9.815493 283.679138,10.172503 
	C282.583557,10.357954 281.654480,11.526983 280.650208,12.251696 
	C281.477081,13.319953 282.109772,14.684660 283.178070,15.384311 
	C284.639709,16.341583 286.841705,16.376560 288.016266,17.529982 
	C295.228882,24.612646 302.179657,31.960821 309.332458,39.105644 
	C326.526550,56.280563 343.799591,73.376442 360.996704,90.548340 
	C363.184418,92.732841 365.092651,95.130692 362.375824,98.382744 
	C362.164673,98.635468 363.417175,100.110954 363.861633,101.308678 
	C363.513153,102.409439 363.292480,103.219658 363.071777,104.029877 
	C363.071777,104.029869 363.061066,104.060783 362.752411,104.143158 
	C361.983459,104.834427 361.523132,105.443329 361.062836,106.052231 
	C360.874847,106.345619 360.686859,106.639008 360.067749,107.135674 
	C359.412140,107.519012 359.238739,107.739304 359.116394,107.999817 
	C358.916687,108.304558 358.717010,108.609306 358.073120,109.131622 
	C357.398590,109.539085 357.210968,109.764557 357.066040,110.025589 
	C357.066040,110.025589 357.075867,110.083405 356.672302,110.061485 
	C355.517700,110.023842 354.766663,110.008118 354.015594,109.992401 
z"/>
<path fill="#6834FE" opacity="1.000000" stroke="none" 
	d="
M22.631329,162.206436 
	C22.299614,165.572159 21.653946,169.109909 21.162346,171.803497 
	C23.543993,173.428192 25.832457,174.779083 27.879372,176.429520 
	C32.117611,179.846832 36.421566,183.222458 40.329212,186.997482 
	C43.518642,190.078659 46.180668,193.707535 49.054039,197.112564 
	C49.587242,197.744415 49.859726,198.762115 50.512608,199.101700 
	C57.551735,202.762848 61.011723,209.957153 66.477150,215.169754 
	C74.195549,222.531143 81.868614,229.963257 89.153488,237.746597 
	C93.023178,241.881058 99.175934,244.035919 100.551033,250.433441 
	C100.630569,250.803467 101.381332,251.391113 101.632454,251.308472 
	C105.913155,249.899597 107.167030,253.623734 109.673996,256.323883 
	C110.300034,259.594269 110.594276,262.314362 110.925232,265.238159 
	C110.961945,265.441925 111.008224,265.854034 110.991150,266.290497 
	C111.985512,273.479584 112.996956,280.232178 113.734177,287.187744 
	C112.503708,287.441162 111.127296,287.928436 110.655785,287.474915 
	C105.563248,282.576843 99.471191,278.378998 98.137474,271.874725 
	C94.649445,269.432037 91.490112,267.724670 88.963722,265.345306 
	C83.677856,260.367004 78.803398,254.955261 73.620239,249.863785 
	C62.630241,239.068222 51.542095,228.372620 40.511238,217.618546 
	C33.869423,211.143402 27.394596,204.488541 20.568031,198.215561 
	C17.896082,195.760300 13.583231,194.853851 13.962461,190.006454 
	C13.962461,190.006454 13.955310,189.955551 14.185165,189.682678 
	C14.563276,188.302643 14.711531,187.195450 14.859786,186.088272 
	C14.914504,185.898621 14.969222,185.708984 15.195164,185.134155 
	C15.467785,184.485580 15.420776,184.245667 15.225363,184.029236 
	C17.589367,176.812317 19.953373,169.595398 22.631329,162.206436 
z"/>
<path fill="#7036FD" opacity="1.000000" stroke="none" 
	d="
M13.629848,190.188263 
	C13.583231,194.853851 17.896082,195.760300 20.568031,198.215561 
	C27.394596,204.488541 33.869423,211.143402 40.511238,217.618546 
	C51.542095,228.372620 62.630241,239.068222 73.620239,249.863785 
	C78.803398,254.955261 83.677856,260.367004 88.963722,265.345306 
	C91.490112,267.724670 94.649445,269.432037 98.137474,271.874725 
	C99.471191,278.378998 105.563248,282.576843 110.655785,287.474915 
	C111.127296,287.928436 112.503708,287.441162 114.029068,287.204010 
	C114.991707,287.036469 115.385223,287.055664 115.778748,287.074860 
	C115.778748,287.074860 115.916153,287.492950 115.998276,287.993713 
	C116.323730,289.010345 116.567070,289.526276 116.810410,290.042175 
	C116.856804,290.469666 116.903206,290.897186 116.827850,291.830231 
	C117.054451,292.913879 117.402809,293.492004 117.751175,294.070099 
	C121.451363,302.582733 124.781944,311.284882 129.008255,319.527740 
	C131.109711,323.626373 133.876984,327.200531 132.836349,332.551117 
	C132.418991,333.023010 131.918945,333.230621 131.784271,333.089539 
	C128.103134,329.232544 124.459267,325.339935 120.267380,321.896118 
	C118.402267,320.047852 116.446861,318.281006 114.691711,316.333618 
	C111.494934,312.786774 108.577248,308.977020 105.253838,305.558167 
	C99.517921,299.657532 93.645790,293.882263 87.673042,288.220825 
	C81.328438,282.206909 74.799065,276.387970 68.355476,270.478333 
	C67.990150,270.143250 67.608887,269.798950 67.339127,269.390198 
	C60.361938,258.818359 50.131763,251.390518 41.416027,242.498413 
	C34.841049,235.790421 28.441755,228.909897 21.984579,222.086929 
	C18.199488,218.087387 14.454216,214.050156 10.320913,209.992279 
	C11.066281,203.426468 12.181758,196.898270 13.629848,190.188263 
z"/>
<path fill="#4073FD" opacity="1.000000" stroke="none" 
	d="
M147.561829,29.032475 
	C146.376404,30.173817 144.760239,31.250711 143.265060,32.475300 
	C141.465378,33.949299 139.768524,35.548836 137.655472,37.423820 
	C150.999542,45.633514 159.992737,56.973427 170.021545,67.288284 
	C178.210587,75.710876 187.526550,83.026115 196.047394,91.142548 
	C200.465378,95.350883 204.322495,100.163979 208.289078,104.826294 
	C213.350525,110.775490 219.039581,114.684959 227.373322,112.082657 
	C228.663757,111.679710 230.241196,112.195839 231.828552,112.542038 
	C221.537399,115.360291 210.570419,115.899895 200.107269,120.908401 
	C192.794861,116.728828 183.231445,117.703468 179.263977,109.026321 
	C178.971634,108.386963 177.846497,108.180046 177.254593,107.618225 
	C168.862976,99.653343 160.495529,91.663002 152.129929,83.670769 
	C151.894211,83.445564 151.772797,83.104248 151.548920,82.862625 
	C144.446625,75.197304 137.341599,67.534500 130.220123,59.887020 
	C129.889542,59.532024 129.438385,59.229851 128.984711,59.057922 
	C122.755920,56.697437 119.403290,51.704334 116.900047,45.924156 
	C126.994934,40.293922 137.089813,34.663689 147.561829,29.032475 
z"/>
<path fill="#3291FD" opacity="1.000000" stroke="none" 
	d="
M296.330811,119.000580 
	C294.513062,113.939697 289.384735,116.462296 286.479584,114.168953 
	C283.731384,111.999512 280.440399,110.482529 277.291016,108.867966 
	C274.931580,107.658379 272.429596,106.720810 269.967377,105.720543 
	C268.962524,105.312332 267.894989,105.058388 265.626434,104.350685 
	C268.332550,103.311295 269.858978,102.725014 272.225281,101.816147 
	C269.158447,99.162262 266.445953,96.948944 263.885864,94.571533 
	C258.676605,89.734039 253.541504,84.816498 248.390549,79.916489 
	C239.748428,71.695396 230.989227,63.591873 222.521790,55.194355 
	C215.353104,48.084873 208.629593,40.528229 201.518478,33.358494 
	C195.683136,27.475054 189.567490,21.869593 183.263245,16.012512 
	C184.041809,15.595111 185.133209,15.306113 186.825867,15.156925 
	C188.243134,14.843717 189.059143,14.390699 189.875153,13.937684 
	C192.958450,13.296251 196.041763,12.654817 199.717285,12.300472 
	C201.637543,13.427737 202.893311,14.821027 204.307022,15.005794 
	C208.793579,15.592174 211.770416,17.831081 214.906998,21.156532 
	C229.151169,36.258404 243.764389,51.016754 258.417328,65.726891 
	C267.915894,75.262581 278.005341,84.222748 287.278473,93.965736 
	C294.282654,101.324799 303.004089,107.125923 308.068848,116.302460 
	C308.350006,116.811844 309.149872,117.401268 309.662842,117.361855 
	C318.515808,116.681732 313.666016,120.325508 311.559235,123.184273 
	C311.188232,123.687675 311.150299,124.436531 310.958527,125.072014 
	C306.196045,123.102806 301.433594,121.133598 296.330811,119.000580 
z"/>
<path fill="#3098FC" opacity="1.000000" stroke="none" 
	d="
M311.132385,125.397919 
	C311.150299,124.436531 311.188232,123.687675 311.559235,123.184273 
	C313.666016,120.325508 318.515808,116.681732 309.662842,117.361855 
	C309.149872,117.401268 308.350006,116.811844 308.068848,116.302460 
	C303.004089,107.125923 294.282654,101.324799 287.278473,93.965736 
	C278.005341,84.222748 267.915894,75.262581 258.417328,65.726891 
	C243.764389,51.016754 229.151169,36.258404 214.906998,21.156532 
	C211.770416,17.831081 208.793579,15.592174 204.307022,15.005794 
	C202.893311,14.821027 201.637543,13.427737 200.140579,12.263457 
	C207.350311,10.634304 214.728973,9.329256 222.555237,8.096182 
	C225.090134,9.533045 227.177399,10.897932 229.521042,12.430460 
	C227.284241,12.767639 224.692871,13.158265 222.101501,13.548892 
	C233.477905,15.564927 238.579666,25.486927 246.038773,31.988764 
	C255.618591,40.339161 264.238007,49.798325 273.189331,58.860626 
	C280.749939,66.514938 288.115295,74.362839 295.710876,81.981682 
	C303.894775,90.190636 312.298187,98.180428 320.503235,106.368645 
	C324.960754,110.817001 329.131561,115.551895 333.565033,120.025383 
	C338.544037,125.049309 339.480011,124.754250 344.252502,119.865509 
	C346.845581,117.209282 350.290222,115.384338 353.701477,113.138443 
	C352.584930,114.692451 351.168060,116.342415 349.640503,117.882637 
	C345.733063,121.822479 341.810638,125.748749 337.830017,129.614395 
	C333.628143,133.694916 326.437805,134.167694 321.519379,131.109253 
	C318.259308,129.082031 314.720337,127.503326 311.132385,125.397919 
M205.472534,11.499052 
	C205.472534,11.499052 205.513885,11.483650 205.472534,11.499052 
z"/>
<path fill="#24B1FC" opacity="1.000000" stroke="none" 
	d="
M363.989410,101.018127 
	C363.417175,100.110954 362.164673,98.635468 362.375824,98.382744 
	C365.092651,95.130692 363.184418,92.732841 360.996704,90.548340 
	C343.799591,73.376442 326.526550,56.280563 309.332458,39.105644 
	C302.179657,31.960821 295.228882,24.612646 288.016266,17.529982 
	C286.841705,16.376560 284.639709,16.341583 283.178070,15.384311 
	C282.109772,14.684660 281.477081,13.319953 280.650208,12.251696 
	C281.654480,11.526983 282.583557,10.357954 283.679138,10.172503 
	C285.788147,9.815493 287.991364,10.015031 290.606232,9.972408 
	C295.373138,10.646357 299.726440,11.158284 303.993896,12.071335 
	C307.462738,12.813521 310.828705,14.036650 314.904907,15.334963 
	C318.617523,20.368185 324.998993,21.056601 327.842377,26.614462 
	C330.160095,31.144733 334.510742,34.710499 338.232727,38.431072 
	C346.083191,46.278549 354.099091,53.960903 362.074127,61.683128 
	C365.628296,65.124657 369.557159,68.234390 372.753693,71.975212 
	C376.208282,76.018028 379.006348,80.621864 382.090790,84.980988 
	C382.090790,84.980988 382.090576,85.089577 381.869873,85.212036 
	C381.437225,85.510788 381.259003,85.716309 381.114502,85.951065 
	C381.114502,85.951065 381.108673,86.114937 380.867737,86.226974 
	C380.424927,86.508270 380.257599,86.706635 380.124756,86.934105 
	C380.124756,86.934105 380.119812,87.143486 379.858826,87.258194 
	C379.402466,87.550003 379.235138,87.750496 379.095795,87.974388 
	C379.095795,87.974388 379.104706,88.075264 378.901367,88.196739 
	C378.496338,88.482269 378.359650,88.689240 378.287933,88.939110 
	C378.018585,89.273117 377.749207,89.607124 377.041626,90.195770 
	C376.394958,90.604469 376.222504,90.791687 376.085999,91.012062 
	C376.085999,91.012062 376.073608,91.109169 375.709839,91.160362 
	C374.599365,92.122871 373.852661,93.034180 373.105927,93.945496 
	C373.105927,93.945496 373.118347,94.086922 372.877686,94.221069 
	C372.422974,94.543541 372.240295,94.758507 372.088959,95.000114 
	C372.088959,95.000114 372.079407,95.099556 371.866211,95.219254 
	C371.444427,95.515007 371.265656,95.717354 371.116638,95.946007 
	C371.116638,95.946007 371.122162,96.077385 370.675110,96.061935 
	C368.745117,96.482208 367.262177,96.917931 365.779205,97.353645 
	C366.177979,97.959023 366.576752,98.564400 367.004211,99.386108 
	C367.032867,99.602425 367.109894,100.031998 367.109894,100.031998 
	C367.109894,100.031998 367.086426,100.077103 366.868286,100.191025 
	C366.404877,100.498245 366.210358,100.733521 366.066650,101.010788 
	C366.066650,101.010788 366.068573,101.070045 365.703064,101.048538 
	C364.888184,101.024055 364.438782,101.021088 363.989410,101.018127 
M370.473114,92.499977 
	C370.473114,92.499977 370.513153,92.485069 370.473114,92.499977 
z"/>
<path fill="#4469FD" opacity="1.000000" stroke="none" 
	d="
M116.551201,45.977951 
	C119.403290,51.704334 122.755920,56.697437 128.984711,59.057922 
	C129.438385,59.229851 129.889542,59.532024 130.220123,59.887020 
	C137.341599,67.534500 144.446625,75.197304 151.548920,82.862625 
	C151.772797,83.104248 151.894211,83.445564 152.129929,83.670769 
	C160.495529,91.663002 168.862976,99.653343 177.254593,107.618225 
	C177.846497,108.180046 178.971634,108.386963 179.263977,109.026321 
	C183.231445,117.703468 192.794861,116.728828 199.736008,120.985703 
	C191.935760,125.367241 183.806625,129.571228 175.178070,133.648514 
	C172.407349,133.521805 170.136047,133.521805 167.159775,133.521805 
	C170.090683,129.386871 167.731033,127.107292 165.232315,124.682724 
	C159.805664,119.417107 154.518738,114.007637 149.161057,108.670662 
	C148.103348,107.617058 146.966141,106.643700 145.896576,105.601532 
	C138.115051,98.019211 130.285782,90.484741 122.580772,82.825348 
	C114.640793,74.932388 106.824272,66.915230 98.953735,58.952415 
	C104.703278,54.645523 110.452820,50.338634 116.551201,45.977951 
z"/>
<path fill="#4860FD" opacity="1.000000" stroke="none" 
	d="
M98.637352,59.102882 
	C106.824272,66.915230 114.640793,74.932388 122.580772,82.825348 
	C130.285782,90.484741 138.115051,98.019211 145.896576,105.601532 
	C146.966141,106.643700 148.103348,107.617058 149.161057,108.670662 
	C154.518738,114.007637 159.805664,119.417107 165.232315,124.682724 
	C167.731033,127.107292 170.090683,129.386871 167.159775,133.521805 
	C170.136047,133.521805 172.407349,133.521805 174.846161,133.761185 
	C168.588669,138.996185 162.163681,143.991806 155.264252,148.697464 
	C154.107224,146.573059 153.429626,144.736771 152.740097,142.904953 
	C152.351639,141.872955 152.201721,140.607635 151.503357,139.858597 
	C146.000641,133.956757 140.575241,127.963501 134.769196,122.368698 
	C127.286156,115.157936 119.446434,108.318405 111.820396,101.254143 
	C110.124329,99.683022 108.785202,97.727890 107.097435,96.146233 
	C102.345284,91.692825 97.721611,87.051521 92.586105,83.080788 
	C90.243317,81.269356 88.427429,80.391113 90.846619,77.467911 
	C91.364914,76.841637 91.340546,75.766266 91.710686,74.341454 
	C88.740723,74.878883 86.330376,75.315048 83.594894,75.810043 
	C83.751419,73.817444 83.854012,72.511414 83.956604,71.205391 
	C88.744728,67.221382 93.532845,63.237370 98.637352,59.102882 
z"/>
<path fill="#593AFE" opacity="1.000000" stroke="none" 
	d="
M112.081619,221.013962 
	C105.424484,214.546021 98.709793,208.136063 92.122734,201.597504 
	C80.105324,189.668549 68.164055,177.662888 56.189960,165.690277 
	C49.971180,159.472260 43.745758,153.260880 37.532616,147.037231 
	C35.511513,145.012726 33.418362,143.531387 30.342875,145.916718 
	C32.182262,141.401245 34.324989,136.789200 36.960114,131.826813 
	C37.612000,131.006119 37.771492,130.535736 37.930988,130.065369 
	C37.930988,130.065369 37.925549,129.906509 38.168571,129.785721 
	C38.617264,129.486862 38.784897,129.278214 38.914494,129.039001 
	C38.964550,128.866058 39.014606,128.693115 39.439713,128.135010 
	C40.183220,126.839882 40.551678,125.929893 40.920135,125.019913 
	C40.920132,125.019913 40.914230,124.929016 41.289017,124.949524 
	C42.104168,124.979996 42.544529,124.989952 43.212967,125.249115 
	C45.047661,127.794899 46.338619,130.418579 48.318085,132.328796 
	C55.177563,138.948303 62.519978,145.078766 69.219574,151.849564 
	C76.776901,159.487198 83.799294,167.651993 91.135269,175.511978 
	C93.740509,178.303314 96.593689,180.862411 99.315506,183.545975 
	C105.551758,189.694519 111.776802,195.854446 117.978432,202.402588 
	C117.294243,206.548981 116.638031,210.302551 115.981827,214.056107 
	C115.981827,214.056107 115.891312,214.511200 115.540115,214.882202 
	C114.153152,217.173447 113.117386,219.093704 112.081619,221.013962 
z"/>
<path fill="#4F50FD" opacity="1.000000" stroke="none" 
	d="
M60.005020,97.957405 
	C61.486732,96.006210 62.968452,94.055016 64.934044,91.770653 
	C65.565338,90.965004 65.712761,90.492531 65.860176,90.020058 
	C67.044930,88.743828 68.229675,87.467606 69.983101,86.282257 
	C70.855560,87.263344 71.468567,88.175072 71.408363,89.039940 
	C71.176788,92.366524 73.629921,92.722984 75.164185,91.425674 
	C79.963783,87.367332 81.271843,90.599426 82.796844,94.378670 
	C83.277351,95.569473 84.198990,96.649651 85.117531,97.585297 
	C90.690979,103.262520 96.371025,108.835472 101.921593,114.534676 
	C109.288330,122.098701 116.560303,129.754959 123.901024,137.344467 
	C124.586189,138.052856 125.588737,138.461319 126.247078,139.187515 
	C132.536926,146.125519 138.784348,153.102020 145.043945,160.067474 
	C144.851135,160.360184 144.658325,160.652878 144.043625,161.133179 
	C143.413483,161.483444 143.241348,161.678040 143.105347,161.904587 
	C140.940201,165.191055 138.775070,168.477524 136.131836,171.689667 
	C135.377792,170.871841 135.101852,170.128357 135.324341,170.727829 
	C132.579468,170.410309 129.877319,170.910995 128.971313,169.861359 
	C122.948929,162.884186 118.794708,154.227921 110.181526,149.607391 
	C109.208229,149.085281 108.587135,147.926880 107.762680,147.103622 
	C103.699898,143.046783 99.483009,139.133743 95.584236,134.925598 
	C89.339844,128.185760 83.819298,120.906540 76.413429,115.102097 
	C71.101784,110.939026 67.580124,104.514641 63.121098,99.215897 
	C62.483818,98.458603 61.063137,98.360558 60.005020,97.957405 
z"/>
<path fill="#22BBFA" opacity="1.000000" stroke="none" 
	d="
M382.406006,84.859154 
	C379.006348,80.621864 376.208282,76.018028 372.753693,71.975212 
	C369.557159,68.234390 365.628296,65.124657 362.074127,61.683128 
	C354.099091,53.960903 346.083191,46.278549 338.232727,38.431072 
	C334.510742,34.710499 330.160095,31.144733 327.842377,26.614462 
	C324.998993,21.056601 318.617523,20.368185 315.309723,15.413397 
	C320.181732,16.521925 325.530518,17.301928 330.402832,19.264753 
	C342.712097,24.223618 355.106476,29.130247 366.895508,35.172417 
	C376.783081,40.240021 386.102234,46.542370 395.216125,52.948177 
	C400.994446,57.009544 402.169128,66.480827 395.067383,72.553345 
	C390.684113,76.301353 386.818970,80.655365 382.406006,84.859154 
z"/>
<path fill="#4C58FD" opacity="1.000000" stroke="none" 
	d="
M145.355225,159.932892 
	C138.784348,153.102020 132.536926,146.125519 126.247078,139.187515 
	C125.588737,138.461319 124.586189,138.052856 123.901024,137.344467 
	C116.560303,129.754959 109.288330,122.098701 101.921593,114.534676 
	C96.371025,108.835472 90.690979,103.262520 85.117531,97.585297 
	C84.198990,96.649651 83.277351,95.569473 82.796844,94.378670 
	C81.271843,90.599426 79.963783,87.367332 75.164185,91.425674 
	C73.629921,92.722984 71.176788,92.366524 71.408363,89.039940 
	C71.468567,88.175072 70.855560,87.263344 70.294373,86.178452 
	C74.460274,81.105789 78.883568,76.227814 83.631729,71.277618 
	C83.854012,72.511414 83.751419,73.817444 83.594894,75.810043 
	C86.330376,75.315048 88.740723,74.878883 91.710686,74.341454 
	C91.340546,75.766266 91.364914,76.841637 90.846619,77.467911 
	C88.427429,80.391113 90.243317,81.269356 92.586105,83.080788 
	C97.721611,87.051521 102.345284,91.692825 107.097435,96.146233 
	C108.785202,97.727890 110.124329,99.683022 111.820396,101.254143 
	C119.446434,108.318405 127.286156,115.157936 134.769196,122.368698 
	C140.575241,127.963501 146.000641,133.956757 151.503357,139.858597 
	C152.201721,140.607635 152.351639,141.872955 152.740097,142.904953 
	C153.429626,144.736771 154.107224,146.573059 154.913025,148.725006 
	C151.912994,152.627777 148.789764,156.213028 145.355225,159.932892 
z"/>
<path fill="#5348FD" opacity="1.000000" stroke="none" 
	d="
M59.690548,98.096764 
	C61.063137,98.360558 62.483818,98.458603 63.121098,99.215897 
	C67.580124,104.514641 71.101784,110.939026 76.413429,115.102097 
	C83.819298,120.906540 89.339844,128.185760 95.584236,134.925598 
	C99.483009,139.133743 103.699898,143.046783 107.762680,147.103622 
	C108.587135,147.926880 109.208229,149.085281 110.181526,149.607391 
	C118.794708,154.227921 122.948929,162.884186 128.971313,169.861359 
	C129.877319,170.910995 132.579468,170.410309 135.324341,170.727829 
	C135.101852,170.128357 135.377792,170.871841 135.810913,171.830444 
	C133.691940,175.152634 131.415802,178.259705 128.794739,181.912445 
	C128.313934,182.994507 128.178024,183.530930 128.042114,184.067337 
	C127.698540,184.537384 127.354965,185.007446 126.546112,185.701996 
	C124.064362,184.063828 122.079689,182.165268 120.025291,180.345398 
	C114.331902,175.301910 108.363930,170.540070 102.958588,165.206665 
	C95.667549,158.012634 88.969727,150.218750 81.706970,142.994293 
	C73.499809,134.830444 64.925850,127.036163 56.573021,119.016983 
	C55.398407,117.889290 54.773266,116.151810 53.531658,115.141701 
	C52.251705,114.100395 50.529186,113.603096 49.000298,112.867783 
	C52.458893,107.990562 55.917484,103.113342 59.690548,98.096764 
z"/>
<path fill="#9141FD" opacity="1.000000" stroke="none" 
	d="
M13.207469,308.978455 
	C13.153631,308.820374 13.099796,308.662292 13.016315,307.906189 
	C13.617399,305.924683 14.248128,304.541229 15.079980,302.716583 
	C17.501066,305.143677 19.286577,307.030090 21.174536,308.807739 
	C26.374712,313.704010 31.954807,318.246460 36.760521,323.499786 
	C43.088581,330.417297 50.379482,336.277130 56.074287,344.008698 
	C61.783813,351.760223 69.621399,358.079285 77.108444,364.328735 
	C80.758675,367.375610 83.561714,369.771942 81.477356,374.783539 
	C81.432877,374.890503 81.909424,375.214203 82.381256,375.664032 
	C84.576187,374.626923 86.878296,373.539154 89.180397,372.451385 
	C89.509071,372.892517 89.837738,373.333649 90.166412,373.774780 
	C88.459099,375.660614 86.595566,377.432098 85.100800,379.473572 
	C84.145775,380.777893 83.736092,382.481537 83.081909,384.006134 
	C82.900352,384.299500 82.718788,384.592865 81.945419,384.950684 
	C80.904114,385.011383 80.454613,385.007629 79.626152,385.043945 
	C74.539963,387.926666 70.802231,387.692047 67.705894,382.416626 
	C66.348206,380.103455 63.503841,378.712006 61.574787,376.674561 
	C57.861023,372.752258 53.977196,368.914734 50.828766,364.561188 
	C48.844292,361.817169 47.637707,359.004547 43.454571,361.357086 
	C43.126484,359.306702 42.871002,357.710052 42.615520,356.113403 
	C42.178696,356.419830 41.741867,356.726257 41.305038,357.032715 
	C39.459511,355.012238 37.594524,353.009064 35.775734,350.964844 
	C34.680908,349.734283 33.698177,348.403564 32.595791,347.180298 
	C28.277285,342.388306 22.967646,338.549500 21.336008,331.532806 
	C20.090744,326.177673 17.319014,321.177490 15.226329,316.019409 
	C15.171000,315.851257 15.115674,315.683105 15.027096,314.862244 
	C14.398385,312.465851 13.802928,310.722137 13.207469,308.978455 
z"/>
<path fill="#5541FE" opacity="1.000000" stroke="none" 
	d="
M48.958130,112.879608 
	C50.529186,113.603096 52.251705,114.100395 53.531658,115.141701 
	C54.773266,116.151810 55.398407,117.889290 56.573021,119.016983 
	C64.925850,127.036163 73.499809,134.830444 81.706970,142.994293 
	C88.969727,150.218750 95.667549,158.012634 102.958588,165.206665 
	C108.363930,170.540070 114.331902,175.301910 120.025291,180.345398 
	C122.079689,182.165268 124.064362,184.063828 126.417374,185.968994 
	C126.753899,186.011490 126.880852,186.450348 126.701233,186.851349 
	C126.306969,187.493332 126.148239,187.766785 126.045425,188.072693 
	C126.045425,188.072693 126.031586,187.998642 125.711655,188.119141 
	C124.279259,191.170837 123.166801,194.102051 122.054344,197.033249 
	C122.054344,197.033249 122.011597,197.001205 121.686340,197.142075 
	C120.925110,198.872696 120.489128,200.462463 120.053146,202.052216 
	C120.053146,202.052216 120.006111,201.999390 119.690765,202.006348 
	C118.919083,202.012115 118.462746,202.010925 118.006401,202.009750 
	C111.776802,195.854446 105.551758,189.694519 99.315506,183.545975 
	C96.593689,180.862411 93.740509,178.303314 91.135269,175.511978 
	C83.799294,167.651993 76.776901,159.487198 69.219574,151.849564 
	C62.519978,145.078766 55.177563,138.948303 48.318085,132.328796 
	C46.338619,130.418579 45.047661,127.794899 43.217804,124.882866 
	C42.983101,123.536362 42.971638,122.805305 42.960175,122.074257 
	C42.960175,122.074257 42.962875,121.946167 43.343384,121.842842 
	C44.453712,120.158714 45.183529,118.577904 45.913345,116.997093 
	C45.913342,116.997093 45.912338,116.917557 46.290771,116.852493 
	C47.417377,115.517952 48.165554,114.248474 48.913727,112.979004 
	C48.913727,112.979004 48.915962,112.891441 48.958130,112.879608 
z"/>
<path fill="#9945FA" opacity="1.000000" stroke="none" 
	d="
M15.148712,316.413879 
	C17.319014,321.177490 20.090744,326.177673 21.336008,331.532806 
	C22.967646,338.549500 28.277285,342.388306 32.595791,347.180298 
	C33.698177,348.403564 34.680908,349.734283 35.775734,350.964844 
	C37.594524,353.009064 39.459511,355.012238 41.305038,357.032715 
	C41.741867,356.726257 42.178696,356.419830 42.615520,356.113403 
	C42.871002,357.710052 43.126484,359.306702 43.454571,361.357086 
	C47.637707,359.004547 48.844292,361.817169 50.828766,364.561188 
	C53.977196,368.914734 57.861023,372.752258 61.574787,376.674561 
	C63.503841,378.712006 66.348206,380.103455 67.705894,382.416626 
	C70.802231,387.692047 74.539963,387.926666 79.815704,385.224335 
	C80.865532,385.550720 81.346840,385.736847 81.828156,385.922943 
	C78.521637,389.231384 75.295708,392.625458 71.891243,395.829865 
	C65.509766,401.836395 56.780968,402.133484 50.547672,392.772919 
	C43.662392,382.433258 37.087177,371.782257 31.542599,360.684479 
	C26.146126,349.883179 22.121668,338.385132 17.719368,327.105377 
	C16.440166,323.827789 15.932456,320.249054 15.148712,316.413879 
z"/>
<path fill="#8C40FC" opacity="1.000000" stroke="none" 
	d="
M83.391129,383.892853 
	C83.736092,382.481537 84.145775,380.777893 85.100800,379.473572 
	C86.595566,377.432098 88.459099,375.660614 90.166412,373.774780 
	C89.837738,373.333649 89.509071,372.892517 89.180397,372.451385 
	C86.878296,373.539154 84.576187,374.626923 82.381256,375.664032 
	C81.909424,375.214203 81.432877,374.890503 81.477356,374.783539 
	C83.561714,369.771942 80.758675,367.375610 77.108444,364.328735 
	C69.621399,358.079285 61.783813,351.760223 56.074287,344.008698 
	C50.379482,336.277130 43.088581,330.417297 36.760521,323.499786 
	C31.954807,318.246460 26.374712,313.704010 21.174536,308.807739 
	C19.286577,307.030090 17.501066,305.143677 15.079980,302.716583 
	C14.248128,304.541229 13.617399,305.924683 12.933352,307.669861 
	C10.609722,294.667755 8.339413,281.303955 6.354068,267.151031 
	C6.828073,262.243042 7.017112,258.124146 7.206152,254.005264 
	C7.206151,254.005264 7.595053,254.007507 7.789294,254.008850 
	C7.996755,258.366364 8.009974,262.722565 8.021471,267.983673 
	C9.883679,276.737915 7.557720,285.538269 15.606785,291.926025 
	C20.875391,296.107239 24.337934,302.547638 28.700577,307.901855 
	C29.511009,308.896484 30.761198,309.530182 31.798498,310.343170 
	C33.581188,311.740326 35.541298,312.968781 37.099495,314.583954 
	C41.785812,319.441559 46.185226,324.580658 50.957920,329.348297 
	C53.395157,331.782959 57.549793,333.093353 58.914749,335.893402 
	C62.798077,343.859589 72.838249,346.137207 75.627937,354.921967 
	C75.985069,356.046600 78.050674,356.548370 79.150215,357.533539 
	C81.791924,359.900574 84.854431,362.037201 86.757156,364.920166 
	C88.541016,367.623047 90.171272,369.667053 93.370361,368.344116 
	C95.768021,367.352570 97.803551,365.485321 100.241196,363.933044 
	C100.321892,363.235077 100.161713,362.612030 100.001740,361.742981 
	C100.001953,361.496948 100.001526,361.004883 100.001526,361.004883 
	C101.441406,356.954620 103.648178,356.712372 106.782303,359.869202 
	C99.273552,367.955292 91.486954,375.867432 83.391129,383.892853 
z"/>
<path fill="#5F44DF" opacity="1.000000" stroke="none" 
	d="
M112.068565,221.467331 
	C113.117386,219.093704 114.153152,217.173447 115.480530,215.106415 
	C115.192879,218.454498 114.570053,221.942856 114.046829,225.446060 
	C113.541443,228.829880 113.138733,232.229034 112.098801,236.172821 
	C111.300629,246.160934 111.094574,255.597687 110.888519,265.034424 
	C110.594276,262.314362 110.300034,259.594269 109.998474,256.440155 
	C110.679291,244.644302 111.367401,233.282501 112.068565,221.467331 
z"/>
<path fill="#5F44DF" opacity="1.000000" stroke="none" 
	d="
M115.866974,286.659729 
	C115.385223,287.055664 114.991707,287.036469 114.303284,287.001038 
	C112.996956,280.232178 111.985512,273.479584 111.195206,266.333740 
	C111.416351,265.940491 111.827705,266.004730 111.827705,266.004730 
	C113.203537,272.751343 114.579361,279.497986 115.866974,286.659729 
z"/>
<path fill="#9875D9" opacity="1.000000" stroke="none" 
	d="
M7.159577,253.537704 
	C7.017112,258.124146 6.828073,262.243042 6.424853,266.720825 
	C6.151013,256.658508 6.091354,246.237228 6.121331,235.340332 
	C6.511646,240.933182 6.812324,247.001663 7.159577,253.537704 
z"/>
<path fill="#967FE3" opacity="1.000000" stroke="none" 
	d="
M111.909943,265.540741 
	C111.827705,266.004730 111.416351,265.940491 111.212288,265.897278 
	C111.008224,265.854034 110.961945,265.441925 110.925232,265.238159 
	C111.094574,255.597687 111.300629,246.160934 111.751205,236.400299 
	C111.994537,245.743179 111.993355,255.409973 111.909943,265.540741 
z"/>
<path fill="#86ADE8" opacity="1.000000" stroke="none" 
	d="
M236.430359,112.026291 
	C239.849701,111.686249 243.734177,111.153511 247.634232,110.987785 
	C252.439301,110.783600 257.257355,110.885094 262.535706,110.791939 
	C263.861206,111.018623 264.720825,111.307838 265.812653,111.850853 
	C256.330719,112.068558 246.616562,112.032455 236.430359,112.026291 
z"/>
<path fill="#6E5E87" opacity="1.000000" stroke="none" 
	d="
M263.456848,390.114136 
	C255.514633,390.341919 247.110413,390.504303 238.393250,390.398071 
	C246.385147,390.102570 254.689987,390.075684 263.456848,390.114136 
z"/>
<path fill="#5F44DF" opacity="1.000000" stroke="none" 
	d="
M117.978432,202.402588 
	C118.462746,202.010925 118.919083,202.012115 119.717178,202.032318 
	C118.932053,205.939392 117.805176,209.827438 116.330055,213.885788 
	C116.638031,210.302551 117.294243,206.548981 117.978432,202.402588 
z"/>
<path fill="#5F44DF" opacity="1.000000" stroke="none" 
	d="
M122.388977,196.904633 
	C123.166801,194.102051 124.279259,191.170837 125.733536,188.149887 
	C124.958115,190.965424 123.840858,193.870712 122.388977,196.904633 
z"/>
<path fill="#28A8FC" opacity="1.000000" stroke="none" 
	d="
M366.975525,99.169785 
	C366.576752,98.564400 366.177979,97.959023 365.779205,97.353645 
	C367.262177,96.917931 368.745117,96.482208 370.609589,96.067154 
	C370.197937,97.021637 369.404755,97.955460 368.063660,99.012375 
	C367.335632,99.146912 367.155579,99.158348 366.975525,99.169785 
z"/>
<path fill="#9945FA" opacity="1.000000" stroke="none" 
	d="
M13.123363,309.348938 
	C13.802928,310.722137 14.398385,312.465851 14.984826,314.600098 
	C14.330292,313.233612 13.684772,311.476532 13.123363,309.348938 
z"/>
<path fill="#5348FD" opacity="1.000000" stroke="none" 
	d="
M45.590721,117.107559 
	C45.183529,118.577904 44.453712,120.158714 43.407448,121.843094 
	C43.816696,120.370453 44.542397,118.794243 45.590721,117.107559 
z"/>
<path fill="#5F44DF" opacity="1.000000" stroke="none" 
	d="
M120.381088,201.907410 
	C120.489128,200.462463 120.925110,198.872696 121.701981,197.162704 
	C121.598251,198.615845 121.153641,200.189209 120.381088,201.907410 
z"/>
<path fill="#5348FD" opacity="1.000000" stroke="none" 
	d="
M48.596786,113.076309 
	C48.165554,114.248474 47.417377,115.517952 46.330463,116.849930 
	C46.754429,115.666161 47.517136,114.419884 48.596786,113.076309 
z"/>
<path fill="#7036FD" opacity="1.000000" stroke="none" 
	d="
M126.329086,340.893127 
	C126.661751,340.160553 127.261528,339.335907 128.171783,338.611145 
	C127.853592,339.407684 127.224899,340.104370 126.329086,340.893127 
z"/>
<path fill="#2B9FFD" opacity="1.000000" stroke="none" 
	d="
M265.529724,7.120982 
	C263.859070,7.309127 261.761993,7.422101 259.350128,7.359426 
	C261.058014,7.137788 263.080658,7.091799 265.529724,7.120982 
z"/>
<path fill="#22BBFA" opacity="1.000000" stroke="none" 
	d="
M373.441650,93.925285 
	C373.852661,93.034180 374.599365,92.122871 375.661072,91.156395 
	C375.243134,92.035851 374.510223,92.970467 373.441650,93.925285 
z"/>
<path fill="#3098FC" opacity="1.000000" stroke="none" 
	d="
M363.861633,101.308670 
	C364.438782,101.021088 364.888184,101.024055 365.673431,101.049362 
	C365.258392,102.039566 364.507507,103.007431 363.414185,104.002594 
	C363.292480,103.219658 363.513153,102.409439 363.861633,101.308670 
z"/>
<path fill="#3688FC" opacity="1.000000" stroke="none" 
	d="
M189.543076,13.969515 
	C189.059143,14.390699 188.243134,14.843717 187.196594,15.108566 
	C187.714371,14.614048 188.462692,14.307698 189.543076,13.969515 
z"/>
<path fill="#3098FC" opacity="1.000000" stroke="none" 
	d="
M354.012512,110.375092 
	C354.766663,110.008118 355.517700,110.023842 356.643494,110.066940 
	C356.240173,111.020210 355.462097,111.946114 354.390137,112.960373 
	C354.067352,112.285072 354.038391,111.521431 354.012512,110.375092 
z"/>
<path fill="#7036FD" opacity="1.000000" stroke="none" 
	d="
M128.918289,338.336365 
	C129.097916,337.850189 129.484146,337.215424 129.964966,336.808289 
	C129.748001,337.419861 129.436462,337.803833 128.918289,338.336365 
z"/>
<path fill="#5348FD" opacity="1.000000" stroke="none" 
	d="
M40.617569,125.123932 
	C40.551678,125.929893 40.183220,126.839882 39.533783,127.881866 
	C39.606869,127.085228 39.960934,126.156586 40.617569,125.123932 
z"/>
<path fill="#5348FD" opacity="1.000000" stroke="none" 
	d="
M42.658600,122.168213 
	C42.971638,122.805305 42.983101,123.536362 42.989727,124.633659 
	C42.544529,124.989952 42.104168,124.979996 41.334309,124.944672 
	C41.455547,124.033600 41.906288,123.147888 42.658600,122.168213 
z"/>
<path fill="#5F44DF" opacity="1.000000" stroke="none" 
	d="
M117.822800,293.759705 
	C117.402809,293.492004 117.054451,292.913879 116.859940,292.151855 
	C117.307335,292.461700 117.600883,292.955536 117.822800,293.759705 
z"/>
<path fill="#7036FD" opacity="1.000000" stroke="none" 
	d="
M14.558304,186.262543 
	C14.711531,187.195450 14.563276,188.302643 14.210804,189.680878 
	C14.089998,188.780228 14.173410,187.608521 14.558304,186.262543 
z"/>
<path fill="#8C40FC" opacity="1.000000" stroke="none" 
	d="
M114.275192,353.764679 
	C113.993561,353.357086 113.999985,352.969666 114.019241,352.291931 
	C114.417503,351.999359 114.802933,351.997101 115.478210,351.988342 
	C115.366447,352.582855 114.964844,353.183868 114.275192,353.764679 
z"/>
<path fill="#6834FE" opacity="1.000000" stroke="none" 
	d="
M23.626453,159.191498 
	C23.765812,159.868546 23.594561,160.661499 23.223387,161.688599 
	C23.120924,161.050964 23.218382,160.179184 23.626453,159.191498 
z"/>
<path fill="#3098FC" opacity="1.000000" stroke="none" 
	d="
M361.339203,105.959106 
	C361.523132,105.443329 361.983459,104.834427 362.736755,104.147964 
	C362.558380,104.668930 362.086975,105.267456 361.339203,105.959106 
z"/>
<path fill="#4C58FD" opacity="1.000000" stroke="none" 
	d="
M65.597290,90.107605 
	C65.712761,90.492531 65.565338,90.965004 65.235031,91.601593 
	C65.146240,91.242188 65.240326,90.718666 65.597290,90.107605 
z"/>
<path fill="#5F44DF" opacity="1.000000" stroke="none" 
	d="
M116.894577,289.721771 
	C116.567070,289.526276 116.323730,289.010345 116.051376,288.207245 
	C116.341156,288.413818 116.659950,288.907593 116.894577,289.721771 
z"/>
<path fill="#5541FE" opacity="1.000000" stroke="none" 
	d="
M37.661766,130.146973 
	C37.771492,130.535736 37.612000,131.006119 37.277977,131.647949 
	C37.199821,131.289154 37.296185,130.758865 37.661766,130.146973 
z"/>
<path fill="#2B9FFD" opacity="1.000000" stroke="none" 
	d="
M275.631256,7.150573 
	C275.428497,7.311510 274.918976,7.394182 274.243042,7.349291 
	C274.492584,7.171921 274.908508,7.122114 275.631256,7.150573 
z"/>
<path fill="#5F44DF" opacity="1.000000" stroke="none" 
	d="
M128.329315,183.938721 
	C128.178024,183.530930 128.313934,182.994507 128.616196,182.233215 
	C128.727203,182.608917 128.671860,183.209518 128.329315,183.938721 
z"/>
<path fill="#6834FE" opacity="1.000000" stroke="none" 
	d="
M25.706608,155.149811 
	C25.803875,155.553482 25.619692,156.045578 25.255360,156.729935 
	C25.191860,156.360870 25.308508,155.799545 25.706608,155.149811 
z"/>
<path fill="#8C40FC" opacity="1.000000" stroke="none" 
	d="
M81.892540,385.703766 
	C81.346840,385.736847 80.865532,385.550720 80.194672,385.184265 
	C80.454613,385.007629 80.904114,385.011383 81.690353,385.024109 
	C82.027100,385.033081 81.956924,385.484589 81.892540,385.703766 
z"/>
<path fill="#4073FD" opacity="1.000000" stroke="none" 
	d="
M149.627045,28.175789 
	C149.454819,28.464966 148.996872,28.681677 148.283524,28.925777 
	C148.465851,28.669886 148.903580,28.386604 149.627045,28.175789 
z"/>
<path fill="#22BBFA" opacity="1.000000" stroke="none" 
	d="
M379.307617,87.923035 
	C379.235138,87.750496 379.402466,87.550003 379.754120,87.260254 
	C379.934753,87.472382 379.804443,87.713737 379.307617,87.923035 
z"/>
<path fill="#8C40FC" opacity="1.000000" stroke="none" 
	d="
M108.404816,358.977356 
	C108.271347,358.747589 108.426392,358.532593 108.828049,358.277405 
	C109.045036,358.523468 108.917923,358.775116 108.404816,358.977356 
z"/>
<path fill="#8C40FC" opacity="1.000000" stroke="none" 
	d="
M110.409477,356.940735 
	C110.281616,356.711548 110.453293,356.480896 110.867218,356.170349 
	C111.078644,356.405243 110.945160,356.688141 110.409477,356.940735 
z"/>
<path fill="#8C40FC" opacity="1.000000" stroke="none" 
	d="
M111.311035,356.002869 
	C111.202927,355.766693 111.405151,355.523132 111.848740,355.181519 
	C111.889053,355.350281 111.732811,355.654297 111.311035,356.002869 
z"/>
<path fill="#8C40FC" opacity="1.000000" stroke="none" 
	d="
M112.294235,355.000427 
	C112.197472,354.779541 112.390892,354.549774 112.816910,354.239960 
	C112.852760,354.402008 112.697731,354.679230 112.294235,355.000427 
z"/>
<path fill="#22BBFA" opacity="1.000000" stroke="none" 
	d="
M380.341614,86.897156 
	C380.257599,86.706635 380.424927,86.508270 380.785706,86.226746 
	C380.971100,86.443489 380.842377,86.692062 380.341614,86.897156 
z"/>
<path fill="#22BBFA" opacity="1.000000" stroke="none" 
	d="
M381.340820,85.912140 
	C381.259003,85.716309 381.437225,85.510788 381.815613,85.214096 
	C381.997650,85.435547 381.859344,85.695389 381.340820,85.912140 
z"/>
<path fill="#22BBFA" opacity="1.000000" stroke="none" 
	d="
M378.495422,88.895355 
	C378.359650,88.689240 378.496338,88.482269 378.851196,88.203384 
	C379.062347,88.405899 378.961853,88.660248 378.495422,88.895355 
z"/>
<path fill="#22BBFA" opacity="1.000000" stroke="none" 
	d="
M372.326691,94.959564 
	C372.240295,94.758507 372.422974,94.543541 372.807190,94.229736 
	C373.020844,94.467606 372.883179,94.739189 372.326691,94.959564 
z"/>
<path fill="#22BBFA" opacity="1.000000" stroke="none" 
	d="
M376.302856,91.001617 
	C376.222504,90.791687 376.394958,90.604469 376.776520,90.381264 
	C376.966797,90.639748 376.823517,90.866104 376.302856,91.001617 
z"/>
<path fill="#22BBFA" opacity="1.000000" stroke="none" 
	d="
M371.334717,95.897232 
	C371.265656,95.717354 371.444427,95.515007 371.816345,95.216660 
	C371.971802,95.421921 371.829498,95.673286 371.334717,95.897232 
z"/>
<path fill="#3098FC" opacity="1.000000" stroke="none" 
	d="
M367.004211,99.386101 
	C367.155579,99.158348 367.335632,99.146912 367.784790,99.154434 
	C368.055725,99.530197 367.900238,99.794540 367.348694,99.999222 
	C367.109894,100.031998 367.032867,99.602425 367.004211,99.386101 
z"/>
<path fill="#3098FC" opacity="1.000000" stroke="none" 
	d="
M366.313721,100.958588 
	C366.210358,100.733521 366.404877,100.498245 366.844971,100.180893 
	C366.880096,100.340019 366.720459,100.623199 366.313721,100.958588 
z"/>
<path fill="#3098FC" opacity="1.000000" stroke="none" 
	d="
M359.340485,107.946037 
	C359.238739,107.739304 359.412140,107.519012 359.815430,107.228882 
	C359.998291,107.458519 359.855072,107.716339 359.340485,107.946037 
z"/>
<path fill="#3098FC" opacity="1.000000" stroke="none" 
	d="
M357.302673,109.972672 
	C357.210968,109.764557 357.398590,109.539085 357.813721,109.234665 
	C358.003754,109.477478 357.850677,109.744026 357.302673,109.972672 
z"/>
<path fill="#5F44DF" opacity="1.000000" stroke="none" 
	d="
M126.338928,188.014587 
	C126.148239,187.766785 126.306969,187.493332 126.686783,187.079315 
	C126.778778,187.256348 126.705597,187.606415 126.338928,188.014587 
z"/>
<path fill="#7036FD" opacity="1.000000" stroke="none" 
	d="
M15.156770,184.259674 
	C15.420776,184.245667 15.467785,184.485580 15.286564,184.852554 
	C15.206740,184.956131 15.088178,184.490112 15.156770,184.259674 
z"/>
<path fill="#4C58FD" opacity="1.000000" stroke="none" 
	d="
M143.317078,161.866028 
	C143.241348,161.678040 143.413483,161.483444 143.784912,161.216324 
	C143.937607,161.426208 143.797836,161.664734 143.317078,161.866028 
z"/>
<path fill="#6834FE" opacity="1.000000" stroke="none" 
	d="
M24.740528,157.142365 
	C24.851105,157.301331 24.730904,157.492874 24.467154,157.790604 
	C24.152929,157.605286 24.214977,157.364655 24.740528,157.142365 
z"/>
<path fill="#593AFE" opacity="1.000000" stroke="none" 
	d="
M29.774086,146.090332 
	C29.880138,146.272919 29.726078,146.486359 29.407211,146.821350 
	C29.087648,146.597290 29.178171,146.323395 29.774086,146.090332 
z"/>
<path fill="#5541FE" opacity="1.000000" stroke="none" 
	d="
M38.694389,129.086761 
	C38.784897,129.278214 38.617264,129.486862 38.247902,129.780991 
	C38.049515,129.558533 38.179539,129.304352 38.694389,129.086761 
z"/>
<path fill="#893DFE" opacity="1.000000" stroke="none" 
	d="
M99.655708,360.972290 
	C100.001526,361.004883 100.001953,361.496948 100.000961,362.079559 
	C100.000084,363.110748 100.000198,363.559357 100.000313,364.007935 
	C97.803551,365.485321 95.768021,367.352570 93.370361,368.344116 
	C90.171272,369.667053 88.541016,367.623047 86.757156,364.920166 
	C84.854431,362.037201 81.791924,359.900574 79.150215,357.533539 
	C78.050674,356.548370 75.985069,356.046600 75.627937,354.921967 
	C72.838249,346.137207 62.798077,343.859589 58.914749,335.893402 
	C57.549793,333.093353 53.395157,331.782959 50.957920,329.348297 
	C46.185226,324.580658 41.785812,319.441559 37.099495,314.583954 
	C35.541298,312.968781 33.581188,311.740326 31.798498,310.343170 
	C30.761198,309.530182 29.511009,308.896484 28.700577,307.901855 
	C24.337934,302.547638 20.875391,296.107239 15.606785,291.926025 
	C7.557720,285.538269 9.883679,276.737915 8.031256,268.448792 
	C9.047267,269.251892 10.368462,270.356720 10.984317,271.769104 
	C11.984370,274.062561 11.619096,277.537415 15.995891,275.629181 
	C16.593555,275.368591 18.245987,276.928680 19.072033,277.925812 
	C20.431932,279.567383 21.275345,281.674835 22.754162,283.173828 
	C33.339680,293.903748 44.030533,304.529755 54.688427,315.188263 
	C66.093811,326.594299 77.416405,338.085449 88.974808,349.334259 
	C91.329948,351.626312 94.573006,353.006012 97.850868,354.312073 
	C98.937134,356.085571 93.314323,359.451050 99.655708,360.972290 
z"/>
<path fill="#3291FD" opacity="1.000000" stroke="none" 
	d="
M205.493210,11.491351 
	C205.513885,11.483650 205.472534,11.499052 205.493210,11.491351 
z"/>
<path fill="#28A8FC" opacity="1.000000" stroke="none" 
	d="
M370.493134,92.492523 
	C370.513153,92.485069 370.473114,92.499977 370.493134,92.492523 
z"/>
<path fill="#823BFE" opacity="1.000000" stroke="none" 
	d="
M100.241196,363.933014 
	C100.000198,363.559357 100.000084,363.110748 100.000748,362.325592 
	C100.161713,362.612030 100.321892,363.235077 100.241196,363.933014 
z"/>
</svg>